<mxfile host="app.diagrams.net" modified="2023-12-08T16:13:50.652Z" agent="Mozilla/5.0 (X11; Linux x86_64) AppleWebKit/537.36 (KHTML, like Gecko) Chrome/118.0.0.0 Safari/537.36" version="21.8.0" etag="czfU5aGs5Z1cFXCund8t" type="github">
  <diagram name="Page-1" id="iXeYX2HjYkgSFpoL9Ysb">
    <mxGraphModel>
      <root>
        <mxCell id="0" />
        <mxCell id="1" parent="0" />
      </root>
    </mxGraphModel>
  </diagram>
</mxfile>
